# xmcd
#
# Track frame offsets: 
#        150
#        18305
#        31336
#        46809
#        62382
#        78586
#        97838
#        115809
#        133995
#        145158
#        158964
#        174755
#        188347
#
# Disc length: 2620 seconds
#
# Revision: 0
# Processed by: cddbd v1.5.2PL0 Copyright (c) Steve Scherf et al.
# Submitted via: ExactAudioCopy v0.95b4
#
DISCID=980a3a0d
DTITLE=David Mello - A New Direction
DYEAR=2003
DGENRE=Blues
TTITLE0=I Feel Like Going Home
TTITLE1=Ready For The Times To Get Better
TTITLE2=The CooCoo
TTITLE3=Long Gone
TTITLE4=Little Red Rooster
TTITLE5=Giant Step
TTITLE6=I Be's Trouble
TTITLE7=Fishin BLues
TTITLE8=Dust By Broom
TTITLE9=Corinna
TTITLE10=Rollin and Tumblin
TTITLE11=You Got To Move
TTITLE12=Colored Aristocracy
EXTD=
EXTT0=
EXTT1=
EXTT2=
EXTT3=
EXTT4=
EXTT5=
EXTT6=
EXTT7=
EXTT8=
EXTT9=
EXTT10=
EXTT11=
EXTT12=
PLAYORDER=
